<svg width="8" height="14" viewBox="0 0 8 14" fill="none" xmlns="http://www.w3.org/2000/svg">
<path d="M5.40014 7.70983C5.49387 7.61686 5.56826 7.50626 5.61903 7.3844C5.6698 7.26254 5.69594 7.13184 5.69594 6.99982C5.69594 6.86781 5.6698 6.73711 5.61903 6.61525C5.56826 6.49339 5.49387 6.38279 5.40014 6.28982L0.81014 1.70982C0.716411 1.61685 0.642016 1.50625 0.591248 1.38439C0.540479 1.26253 0.514341 1.13183 0.514341 0.999817C0.514341 0.867805 0.540479 0.737099 0.591248 0.61524C0.642016 0.49338 0.716411 0.382779 0.81014 0.289816C0.997502 0.103565 1.25095 -0.000976562 1.51514 -0.000976562C1.77933 -0.000976562 2.03278 0.103565 2.22014 0.289816L6.81014 4.87982C7.37194 5.44232 7.6875 6.20482 7.6875 6.99982C7.6875 7.79483 7.37194 8.55732 6.81014 9.11983L2.22014 13.7098C2.03388 13.8946 1.78248 13.9987 1.52014 13.9998C1.38853 14.0006 1.25807 13.9754 1.13623 13.9256C1.0144 13.8758 0.90358 13.8025 0.81014 13.7098C0.716411 13.6169 0.642016 13.5063 0.591248 13.3844C0.540479 13.2625 0.514341 13.1318 0.514341 12.9998C0.514341 12.8678 0.540479 12.7371 0.591248 12.6153C0.642016 12.4934 0.716411 12.3828 0.81014 12.2898L5.40014 7.70983Z" fill="#F8F8F8" fill-opacity="0.5"/>
</svg>
