<svg width="32" height="32" viewBox="0 0 32 32" fill="none" xmlns="http://www.w3.org/2000/svg">
<path d="M30.0528 8.56001C29.8944 7.92722 29.5718 7.34744 29.1177 6.87922C28.6635 6.411 28.0938 6.07092 27.4661 5.89334C25.1728 5.33334 15.9995 5.33334 15.9995 5.33334C15.9995 5.33334 6.82613 5.33334 4.53279 5.94668C3.90512 6.12426 3.33543 6.46433 2.88126 6.93255C2.42708 7.40077 2.10451 7.98056 1.94613 8.61334C1.52641 10.9408 1.32111 13.3018 1.33279 15.6667C1.31783 18.0494 1.52315 20.4284 1.94613 22.7733C2.12074 23.3865 2.45054 23.9442 2.90365 24.3927C3.35677 24.8411 3.91789 25.1651 4.53279 25.3333C6.82613 25.9467 15.9995 25.9467 15.9995 25.9467C15.9995 25.9467 25.1728 25.9467 27.4661 25.3333C28.0938 25.1558 28.6635 24.8157 29.1177 24.3475C29.5718 23.8792 29.8944 23.2995 30.0528 22.6667C30.4693 20.3568 30.6746 18.0138 30.6661 15.6667C30.6811 13.284 30.4758 10.9049 30.0528 8.56001Z" stroke="#F8F8F8" stroke-width="2" stroke-linecap="round" stroke-linejoin="round"/>
<path d="M13 20.0267L20.6667 15.6667L13 11.3067V20.0267Z" stroke="#F8F8F8" stroke-width="2" stroke-linecap="round" stroke-linejoin="round"/>
</svg>
